<?xml version="1.0" encoding="UTF-8" standalone="no"?>
<svg width="37px" height="36px" viewBox="0 0 37 36" version="1.1" xmlns="http://www.w3.org/2000/svg" xmlns:xlink="http://www.w3.org/1999/xlink" xmlns:sketch="http://www.bohemiancoding.com/sketch/ns">
    <!-- Generator: Sketch 3.3.1 (12002) - http://www.bohemiancoding.com/sketch -->
    <title>RSS</title>
    <desc>Created with Sketch.</desc>
    <defs></defs>
    <g id="Desktop-Layouts" stroke="none" stroke-width="1" fill="none" fill-rule="evenodd" sketch:type="MSPage">
        <g id="Home" sketch:type="MSArtboardGroup" transform="translate(-448.000000, -1425.000000)">
            <g id="Footer" sketch:type="MSLayerGroup" transform="translate(0.000000, 1290.000000)">
                <g id="Social" transform="translate(218.000000, 82.000000)" sketch:type="MSShapeGroup">
                    <g transform="translate(134.000000, 52.000000)" id="RSS">
                        <g transform="translate(96.000000, 1.000000)">
                            <path d="M0.0692457121,18 C0.0692457121,8.05887401 8.2279679,0 18.2922629,0 C28.3565578,0 36.51528,8.05887401 36.51528,18 C36.51528,27.941126 28.3565578,36 18.2922629,36 C8.2279679,36 0.0692457121,27.941126 0.0692457121,18 Z" fill="#E18F00"></path>
                            <path d="M16.3507782,23.2542778 C16.3507782,22.091576 15.3904596,21.1374993 14.2016512,21.1374993 C13.0174838,21.1374993 12.0553878,22.091576 12.0553878,23.2542778 C12.0553878,24.4231241 13.0174838,25.3665696 14.2016512,25.3665696 C15.3904102,25.3665696 16.3507288,24.4231729 16.3507782,23.2542778 Z M22.697985,25.3620343 C22.697985,19.5633508 17.9219663,14.8465623 12.0553878,14.8465623 L12.0553878,17.899081 C14.0679541,17.899081 15.9604004,18.6763287 17.3851042,20.0844257 C18.8083269,21.489548 19.5935259,23.3672708 19.5935259,25.362083 L22.697985,25.3620343 Z M28.1737414,25.3605225 C28.1737414,16.5808127 20.9422475,9.43343041 12.0553878,9.43343041 L12.0553878,12.4874121 C19.2319315,12.4874121 25.0739725,18.2633214 25.0739725,25.360425 L28.1737414,25.3605225 Z" id="Path" fill="#FFFFFF"></path>
                            <path d="M36.51528,18 C36.51528,27.941126 28.3565578,36 18.2922629,36 C14.5596543,36 11.0891557,34.891508 8.19983769,32.9896653 L29.0803075,3.49164662 C33.5893113,6.7683902 36.51528,12.0466784 36.51528,18 Z" id="reflec" fill-opacity="0.08" fill="#000000"></path>
                        </g>
                    </g>
                </g>
            </g>
        </g>
    </g>
</svg>