<?xml version="1.0" encoding="UTF-8" standalone="no"?>
<svg width="37px" height="36px" viewBox="0 0 37 36" version="1.1" xmlns="http://www.w3.org/2000/svg" xmlns:xlink="http://www.w3.org/1999/xlink" xmlns:sketch="http://www.bohemiancoding.com/sketch/ns">
    <!-- Generator: Sketch 3.3.1 (12002) - http://www.bohemiancoding.com/sketch -->
    <title>Instagram</title>
    <desc>Created with Sketch.</desc>
    <defs></defs>
    <g id="Desktop-Layouts" stroke="none" stroke-width="1" fill="none" fill-rule="evenodd" sketch:type="MSPage">
        <g id="Home" sketch:type="MSArtboardGroup" transform="translate(-588.000000, -1425.000000)">
            <g id="Footer" sketch:type="MSLayerGroup" transform="translate(0.000000, 1290.000000)">
                <g id="Social" transform="translate(218.000000, 82.000000)" sketch:type="MSShapeGroup">
                    <g transform="translate(134.000000, 52.000000)" id="Instagram">
                        <g transform="translate(236.000000, 1.000000)">
                            <path d="M0.484719985,18 C0.484719985,8.05887401 8.64344217,0 18.7077371,0 C28.7720321,0 36.9307543,8.05887401 36.9307543,18 C36.9307543,27.941126 28.7720321,36 18.7077371,36 C8.64344217,36 0.484719985,27.941126 0.484719985,18 Z" fill="#517FA4"></path>
                            <path d="M26.4099359,27.103075 C27.1667007,26.9444266 27.7850781,26.3208102 27.9329912,25.5688636 C27.9488674,25.4875791 27.96051,25.4049879 27.9740047,25.323442 L27.9740047,10.676558 C27.9610392,10.596319 27.9499258,10.5158186 27.9340497,10.435841 C27.771848,9.61541683 27.0867906,8.97873215 26.2456174,8.86503846 C26.2106898,8.86059525 26.176556,8.85301567 26.1421576,8.84700428 L11.2733167,8.84700428 C11.1836162,8.86294754 11.0933866,8.87497032 11.0050092,8.89483404 C10.1839458,9.07961897 9.57641712,9.73276963 9.45946256,10.5545006 C9.45469971,10.5887394 9.44755542,10.6227168 9.44146955,10.6569556 L9.44146955,25.3438285 C9.45840415,25.4368744 9.47189891,25.5307043 9.49306715,25.6232275 C9.67458487,26.4162083 10.3599068,27.0309383 11.1751489,27.1344388 C11.2145748,27.1391434 11.2542653,27.146723 11.2936911,27.1529957 L26.1217832,27.1529957 C26.2180987,27.1367911 26.3146788,27.1234615 26.4099359,27.103075 Z M11.4463671,16.3189015 C11.4463671,19.0279478 11.4461025,21.7369941 11.4466317,24.4460404 C11.4466317,24.8357353 11.7882343,25.170805 12.1827575,25.170805 C16.5317737,25.1710663 20.8805253,25.1710663 25.2295416,25.170805 C25.6277692,25.170805 25.9675196,24.836258 25.9675196,24.4436881 C25.9677842,21.7377782 25.9675196,19.0321296 25.9675196,16.3264811 L25.9675196,16.2702877 L24.1983834,16.2702877 C24.4481687,17.0588253 24.5249036,17.8609539 24.4270004,18.6785031 C24.3285681,19.4963135 24.0618482,20.2574079 23.6273699,20.9602179 C23.1926271,21.6638119 22.6290225,22.2466555 21.9389377,22.710578 C20.1502208,23.9139016 17.7952534,24.0197544 15.8972555,22.9674996 C14.9378047,22.436145 14.1844798,21.6951757 13.6592427,20.7404101 C12.8757529,19.3157105 12.7505957,17.8204424 13.2102112,16.2689809 C12.6233216,16.2695036 12.0388134,16.2695036 11.4463671,16.2695036 L11.4463671,16.3189015 Z M14.9526225,17.9438066 C14.922987,20.0193045 16.6050688,21.664596 18.6216088,21.7074599 C20.7199113,21.7518919 22.4170754,20.0958844 22.4612641,18.0818072 C22.5065113,16.004741 20.8104055,14.2891424 18.7078694,14.2904492 C16.6524327,14.2891424 14.9814643,15.9226725 14.9526225,17.9438066 Z M25.2552081,13.5419004 C25.6476144,13.5322299 25.967255,13.2000352 25.967255,12.8119085 C25.9675196,12.2340309 25.9675196,11.6558919 25.967255,11.0780143 C25.967255,10.6634897 25.6351781,10.3336473 25.2160468,10.333386 C24.632597,10.3331246 24.0491472,10.3328632 23.4654328,10.333386 C23.04736,10.3339087 22.7142247,10.6645352 22.7139601,11.0790598 C22.7136955,11.6519714 22.7121079,12.2248831 22.7160769,12.7980561 C22.7166061,12.8835224 22.7330115,12.9723865 22.7605302,13.0534096 C22.865313,13.3584223 23.1481737,13.5455595 23.4945392,13.5471277 C23.7760768,13.5476504 24.0576145,13.5468663 24.3394168,13.5468663 C24.6442396,13.5434686 24.9501207,13.5492186 25.2552081,13.5419004 Z" id="Path" fill="#FFFFFF"></path>
                            <path d="M36.9307543,18 C36.9307543,27.941126 28.7720321,36 18.7077371,36 C14.9751285,36 11.50463,34.891508 8.61531196,32.9896653 L29.4957818,3.49164662 C34.0047856,6.7683902 36.9307543,12.0466784 36.9307543,18 Z" id="reflec" fill-opacity="0.08" fill="#000000"></path>
                        </g>
                    </g>
                </g>
            </g>
        </g>
    </g>
</svg>