<?xml version="1.0" encoding="UTF-8" standalone="no"?>
<svg width="37px" height="36px" viewBox="0 0 37 36" version="1.1" xmlns="http://www.w3.org/2000/svg" xmlns:xlink="http://www.w3.org/1999/xlink" xmlns:sketch="http://www.bohemiancoding.com/sketch/ns">
    <!-- Generator: Sketch 3.3.1 (12002) - http://www.bohemiancoding.com/sketch -->
    <title>Phone</title>
    <desc>Created with Sketch.</desc>
    <defs></defs>
    <g id="Desktop-Layouts" stroke="none" stroke-width="1" fill="none" fill-rule="evenodd" sketch:type="MSPage">
        <g id="Home" sketch:type="MSArtboardGroup" transform="translate(-686.000000, -1425.000000)">
            <g id="Footer" sketch:type="MSLayerGroup" transform="translate(0.000000, 1290.000000)">
                <g id="Social" transform="translate(218.000000, 82.000000)" sketch:type="MSShapeGroup">
                    <g transform="translate(134.000000, 52.000000)" id="Phone">
                        <g transform="translate(334.000000, 1.000000)">
                            <path d="M0.545030766,18 C0.545030766,8.05887401 8.57216066,0 18.4741283,0 C28.3760959,0 36.4032258,8.05887401 36.4032258,18 C36.4032258,27.941126 28.3760959,36 18.4741283,36 C8.57216066,36 0.545030766,27.941126 0.545030766,18 Z" id="Pinterest" fill="#66CB20"></path>
                            <path d="M36.4032258,18 C36.4032258,27.941126 28.3760959,36 18.4741283,36 C14.801723,36 11.3872003,34.891508 8.54448416,32.9896653 L29.0881722,3.49164662 C33.5244501,6.7683902 36.4032258,12.0466784 36.4032258,18 Z" id="reflec" fill-opacity="0.08" fill="#000000"></path>
                            <path d="M12.9726306,5.5 C12.421173,5.5 11.9741283,5.95526288 11.9741283,6.49545703 L11.9741283,29.504543 C11.9741283,30.0543187 12.4216177,30.5 12.9726306,30.5 L23.975626,30.5 C24.5270836,30.5 24.9741283,30.0447371 24.9741283,29.504543 L24.9741283,6.49545703 C24.9741283,5.94568129 24.5266389,5.5 23.975626,5.5 L12.9726306,5.5 Z M15.4741283,6.9375 L15.4741283,8.375 L21.4741283,8.375 L21.4741283,6.9375 L15.4741283,6.9375 Z M13.0991283,9.5 L13.0991283,26.1875 L23.8491283,26.1875 L23.8491283,9.5 L13.0991283,9.5 Z M18.4741283,30.0625 C19.3025555,30.0625 19.9741283,29.4189094 19.9741283,28.625 C19.9741283,27.8310906 19.3025555,27.1875 18.4741283,27.1875 C17.6457011,27.1875 16.9741283,27.8310906 16.9741283,28.625 C16.9741283,29.4189094 17.6457011,30.0625 18.4741283,30.0625 Z" id="Mobile" fill="#FFFFFF"></path>
                        </g>
                    </g>
                </g>
            </g>
        </g>
    </g>
</svg>