<?xml version="1.0" encoding="UTF-8" standalone="no"?>
<svg width="37px" height="36px" viewBox="0 0 37 36" version="1.1" xmlns="http://www.w3.org/2000/svg" xmlns:xlink="http://www.w3.org/1999/xlink" xmlns:sketch="http://www.bohemiancoding.com/sketch/ns">
    <!-- Generator: Sketch 3.3.1 (12002) - http://www.bohemiancoding.com/sketch -->
    <title>Pinterest</title>
    <desc>Created with Sketch.</desc>
    <defs></defs>
    <g id="Desktop-Layouts" stroke="none" stroke-width="1" fill="none" fill-rule="evenodd" sketch:type="MSPage">
        <g id="Home" sketch:type="MSArtboardGroup" transform="translate(-636.000000, -1425.000000)">
            <g id="Footer" sketch:type="MSLayerGroup" transform="translate(0.000000, 1290.000000)">
                <g id="Social" transform="translate(218.000000, 82.000000)" sketch:type="MSShapeGroup">
                    <g transform="translate(134.000000, 52.000000)" id="Pinterest">
                        <g transform="translate(284.000000, 1.000000)">
                            <path d="M0.545030766,18 C0.545030766,8.05887401 8.57216066,0 18.4741283,0 C28.3760959,0 36.4032258,8.05887401 36.4032258,18 C36.4032258,27.941126 28.3760959,36 18.4741283,36 C8.57216066,36 0.545030766,27.941126 0.545030766,18 Z" fill="#CB2027"></path>
                            <path d="M10.8452652,15.3938936 C10.8452652,17.3754371 11.5925225,19.1383019 13.1952447,19.7952335 C13.4580529,19.9031014 13.6934587,19.7989443 13.7696756,19.5068183 C13.8226961,19.3046461 13.9481099,18.7946091 14.0040618,18.5822004 C14.080916,18.2932733 14.051092,18.1919312 13.8390101,17.9401117 C13.3768653,17.3928392 13.0815566,16.6843409 13.0815566,15.6807734 C13.0815566,12.7692379 15.2513175,10.162752 18.7315507,10.162752 C21.8132383,10.162752 23.5063247,12.05319 23.5063247,14.5779113 C23.5063247,17.8998052 22.0420165,20.7034729 19.8681771,20.7034729 C18.6676967,20.7034729 17.7690252,19.7066872 18.0570691,18.4841852 C18.4019571,17.0247067 19.070066,15.449555 19.070066,14.3960843 C19.070066,13.4530405 18.5658617,12.6664883 17.5224035,12.6664883 C16.295158,12.6664883 15.3093086,13.9410689 15.3093086,15.6485282 C15.3093086,16.7360355 15.6753538,17.4715329 15.6753538,17.4715329 C15.6753538,17.4715329 14.4194313,22.8138692 14.1993199,23.7494914 C13.7608814,25.6128025 14.1334267,27.8969644 14.1649076,28.1276711 C14.1833883,28.2643292 14.3583813,28.2968303 14.4376571,28.193569 C14.5508354,28.0452667 16.0124671,26.2336503 16.5094066,24.4234414 C16.6499873,23.9108453 17.3165668,21.2566314 17.3165668,21.2566314 C17.71524,22.0201514 18.8805433,22.6926938 20.1197695,22.6926938 C23.8087708,22.6926938 26.3115666,19.3162902 26.3115666,14.7968459 C26.3115666,11.379496 23.4284509,8.19681935 19.0464872,8.19681935 C13.5943002,8.19681935 10.8452652,12.1212632 10.8452652,15.3938936 Z" id="Path" fill="#FFFFFF"></path>
                            <path d="M36.4032258,18 C36.4032258,27.941126 28.3760959,36 18.4741283,36 C14.801723,36 11.3872003,34.891508 8.54448416,32.9896653 L29.0881722,3.49164662 C33.5244501,6.7683902 36.4032258,12.0466784 36.4032258,18 Z" id="reflec" fill-opacity="0.08" fill="#000000"></path>
                        </g>
                    </g>
                </g>
            </g>
        </g>
    </g>
</svg>