<?xml version="1.0" encoding="UTF-8" standalone="no"?>
<svg width="37px" height="36px" viewBox="0 0 37 36" version="1.1" xmlns="http://www.w3.org/2000/svg" xmlns:xlink="http://www.w3.org/1999/xlink" xmlns:sketch="http://www.bohemiancoding.com/sketch/ns">
    <!-- Generator: Sketch 3.3.1 (12002) - http://www.bohemiancoding.com/sketch -->
    <title>Twitter</title>
    <desc>Created with Sketch.</desc>
    <defs></defs>
    <g id="Desktop-Layouts" stroke="none" stroke-width="1" fill="none" fill-rule="evenodd" sketch:type="MSPage">
        <g id="Home" sketch:type="MSArtboardGroup" transform="translate(-352.000000, -1425.000000)">
            <g id="Footer" sketch:type="MSLayerGroup" transform="translate(0.000000, 1290.000000)">
                <g id="Social" transform="translate(218.000000, 82.000000)" sketch:type="MSShapeGroup">
                    <g transform="translate(134.000000, 52.000000)" id="Twitter">
                        <g transform="translate(0.000000, 1.000000)">
                            <path d="M0,18 C0,8.05887401 8.15872218,0 18.2230172,0 C28.2873121,0 36.4460343,8.05887401 36.4460343,18 C36.4460343,27.941126 28.2873121,36 18.2230172,36 C8.15872218,36 0,27.941126 0,18 Z" fill="#4099FF"></path>
                            <path d="M17.7719901,14.3327866 L17.8101748,14.9556272 L17.1737633,14.879361 C14.8572253,14.5870072 12.8334367,13.5955467 11.1151256,11.9304014 L10.2750624,11.1041842 L10.0586825,11.7143138 C9.60046617,13.0743943 9.89321547,14.510741 10.8478327,15.4767795 C11.356962,16.0106429 11.2424079,16.0869091 10.36416,15.7691333 C10.0586825,15.667445 9.79138962,15.5911788 9.76593316,15.6293119 C9.67683555,15.7182891 9.98231308,16.8749931 10.2241495,17.3325903 C10.5550834,17.968142 11.2296797,18.5909826 11.967917,18.9596025 L12.5916003,19.2519563 L11.853363,19.2646673 C11.140582,19.2646673 11.1151256,19.2773783 11.191495,19.54431 C11.4460596,20.3705272 12.4515898,21.2475884 13.5716741,21.6289194 L14.3608243,21.8958511 L13.6734999,22.3026041 C12.6552415,22.8873117 11.4587878,23.2177985 10.2623342,23.2432206 C9.68956378,23.2559316 9.21861926,23.3067757 9.21861926,23.3449088 C9.21861926,23.4720192 10.7714634,24.183837 11.6751677,24.4634797 C14.3862808,25.2896969 17.6065231,24.9337879 20.0248869,23.5228633 C21.743198,22.5186917 23.4615091,20.5230596 24.2633876,18.5909826 C24.6961474,17.5613889 25.1289073,15.680156 25.1289073,14.7776727 C25.1289073,14.1929652 25.167092,14.116699 25.8798729,13.4175922 C26.2999045,13.0108391 26.6944796,12.565953 26.770849,12.4388427 C26.8981313,12.197333 26.8854031,12.197333 26.2362633,12.4134206 C25.1543637,12.7947516 25.001625,12.7439075 25.5362107,12.171911 C25.9307858,11.7651579 26.4017303,11.027918 26.4017303,10.8118305 C26.4017303,10.7736974 26.2108069,10.8372525 25.9944269,10.9516518 C25.7653188,11.0787622 25.2561896,11.2694276 24.8743427,11.3838269 L24.1870182,11.5999145 L23.5633349,11.1804504 C23.2196727,10.9516518 22.736,10.6974312 22.4814354,10.621165 C21.8322956,10.4432105 20.8394936,10.4686326 20.253995,10.6720091 C18.6629662,11.2440056 17.657436,12.7184854 17.7719901,14.3327866 Z" id="Path" fill="#FFFFFF"></path>
                            <path d="M36.4460343,18 C36.4460343,27.941126 28.2873121,36 18.2230172,36 C14.4904085,36 11.01991,34.891508 8.13059197,32.9896653 L29.0110618,3.49164662 C33.5200656,6.7683902 36.4460343,12.0466784 36.4460343,18 Z" id="reflec" fill-opacity="0.08" fill="#000000"></path>
                        </g>
                    </g>
                </g>
            </g>
        </g>
    </g>
</svg>