<?xml version="1.0" encoding="UTF-8" standalone="no"?>
<svg width="37px" height="37px" viewBox="0 0 37 37" version="1.1" xmlns="http://www.w3.org/2000/svg" xmlns:xlink="http://www.w3.org/1999/xlink" xmlns:sketch="http://www.bohemiancoding.com/sketch/ns">
    <!-- Generator: Sketch 3.3.1 (12002) - http://www.bohemiancoding.com/sketch -->
    <title>Youtube</title>
    <desc>Created with Sketch.</desc>
    <defs></defs>
    <g id="Desktop-Layouts" stroke="none" stroke-width="1" fill="none" fill-rule="evenodd" sketch:type="MSPage">
        <g id="Home" sketch:type="MSArtboardGroup" transform="translate(-542.000000, -1425.000000)">
            <g id="Footer" sketch:type="MSLayerGroup" transform="translate(0.000000, 1290.000000)">
                <g id="Social" transform="translate(218.000000, 82.000000)" sketch:type="MSShapeGroup">
                    <g transform="translate(134.000000, 52.000000)" id="Youtube">
                        <g transform="translate(190.000000, 1.000000)">
                            <path d="M0.276982848,18.1967213 C0.276982848,8.14694914 8.43570503,0 18.5,0 C28.564295,0 36.7230172,8.14694914 36.7230172,18.1967213 C36.7230172,28.2464935 28.564295,36.3934426 18.5,36.3934426 C8.43570503,36.3934426 0.276982848,28.2464935 0.276982848,18.1967213 Z" id="YouTube" fill="#CD332D"></path>
                            <path d="M26.7051078,18.4565174 C27.5792944,19.3263444 27.5887514,23.6204685 27.5887514,23.6452781 C27.5887514,23.6452781 27.5816695,27.9617572 26.7051078,28.8346087 C25.8345485,29.7025947 18.4965022,29.7213115 18.4965022,29.7213115 C18.4965022,29.7213115 11.1594923,29.7025947 10.2866443,28.8346525 C9.41371001,27.9647817 9.41129179,23.6778462 9.41129179,23.6452781 C9.41129179,23.6205562 9.41366682,19.3263444 10.2866443,18.4565174 C11.1595787,17.5880054 18.4965022,17.5764335 18.4965022,17.577091 C18.4965022,17.5764335 25.8345485,17.5880054 26.7051078,18.4565174 Z M13.5892855,27.2246573 L12.3939938,27.2246573 L12.3939938,20.9863095 L11.1582832,20.9863095 L11.1582832,19.9263339 L14.8249529,19.9263339 L14.8249961,20.9863095 L13.5892855,20.9863095 L13.5892855,27.2246573 Z M17.2594962,26.6325578 C17.0621089,26.8522501 16.8598853,27.0182466 16.6470387,27.1317747 C16.4353149,27.2477136 16.2307162,27.3031627 16.0309107,27.3031627 C15.7846841,27.3031627 15.602713,27.2247012 15.4767065,27.0630003 C15.3541977,26.9017378 15.2911512,26.6634164 15.2911512,26.3416366 L15.2911512,21.8397867 L16.3508931,21.8397867 L16.3508931,25.9697991 C16.3508931,26.0977484 16.3734775,26.1894914 16.4163578,26.2462116 C16.4627358,26.3041591 16.5352824,26.3319494 16.6339976,26.3319494 C16.7113375,26.3319494 16.8112186,26.2939022 16.9301432,26.2184651 C17.0502769,26.1423706 17.1584923,26.0469895 17.2595394,25.9305245 L17.2595394,21.8398743 L18.319238,21.8398743 L18.3191949,27.2247012 L17.2594962,27.2247012 L17.2594962,26.6325578 Z M21.1950633,27.292818 C20.9869237,27.292818 20.8025344,27.2549023 20.6407727,27.1763969 C20.4790974,27.0979793 20.3255836,26.9772187 20.1877018,26.8118796 L20.1877018,27.2247012 L19.1161712,27.2247012 L19.1161712,19.9263339 L20.1877018,19.9263339 L20.1877018,22.2761905 C20.331586,22.1131746 20.4826384,21.9870225 20.642025,21.9025997 C20.8037003,21.8169057 20.9667574,21.7746066 21.1307646,21.7746066 C21.4673722,21.7746066 21.723099,21.8893182 21.8991109,22.1175141 C22.0774978,22.3474633 22.1655469,22.6836644 22.1655469,23.12432 L22.1655469,26.1122133 C22.1654606,26.4930366 22.0821183,26.785229 21.9157362,26.988703 C21.7504335,27.1926591 21.5090433,27.292818 21.1950633,27.292818 Z M23.8138232,25.6758095 C23.8138232,25.9595421 23.8484124,26.1556959 23.9172884,26.2661557 C23.9886259,26.3753882 24.1075506,26.4292154 24.2764805,26.4292154 C24.4524061,26.4292154 24.574958,26.3826645 24.6451296,26.289738 C24.7141352,26.1967677 24.7509699,25.9927677 24.7509699,25.6758095 L24.7509699,25.430168 L25.8415872,25.430168 L25.8415872,25.7066681 C25.8415872,26.2590109 25.709492,26.6748569 25.4419763,26.9555212 C25.1780017,27.2332048 24.7806795,27.3713672 24.252687,27.3713672 C23.7781112,27.3713672 23.4034598,27.2246573 23.1311078,26.9276871 C22.8586693,26.6326017 22.7207012,26.2256538 22.7207012,25.7066243 L22.7207012,23.2885193 C22.7207012,22.8231417 22.8717536,22.4404337 23.1714834,22.1470577 C23.4711268,21.853112 23.8564875,21.7064459 24.3322723,21.7064459 C24.8174709,21.7064459 25.1909564,21.8428112 25.4513901,22.1150595 C25.7118238,22.3866503 25.8415441,22.7778182 25.8415441,23.2885193 L25.8415441,24.6611137 L23.8138232,24.6611575 L23.8138232,25.6758095 Z M20.961921,22.7693584 C21.0367563,22.8634683 21.0736773,23.0016746 21.0736773,23.1834072 L21.0736773,25.9637063 C21.0736773,26.1368915 21.0415495,26.2588356 20.9810076,26.3343164 C20.9203794,26.4115944 20.825162,26.4496417 20.6955281,26.4496417 C20.6051903,26.4496417 20.5207685,26.4290401 20.4398013,26.3910805 C20.3577977,26.353603 20.2732896,26.2878093 20.1877018,26.2009318 L20.1877018,22.8460665 C20.2602053,22.771813 20.3327519,22.71689 20.4064644,22.6818234 C20.4802633,22.6456171 20.5551418,22.6293111 20.6312294,22.6293111 C20.7739044,22.6293111 20.8845811,22.676388 20.961921,22.7693584 Z M23.9232908,22.7971486 C23.8495783,22.8912148 23.8139095,23.0542306 23.8139095,23.2794459 L23.8139095,23.823285 L24.7510994,23.823285 L24.7510994,23.2794459 C24.7510994,23.0542745 24.7130557,22.8913463 24.6392567,22.7971486 C24.5679193,22.6962883 24.4478287,22.6486416 24.287233,22.6486416 C24.1183894,22.6486416 23.9970897,22.6962883 23.9232908,22.7971486 Z" id="Path" fill="#FFFFFF"></path>
                            <path d="M11.8386668,7.27868852 L13.4382331,12.1330016 L13.4382331,15.3183199 L14.7822454,15.3183199 L14.7822454,11.9826974 L16.346143,7.27868852 L14.9795895,7.27868852 L14.1495353,10.4923669 L14.0650704,10.4923669 L13.1920928,7.27868852 L11.8386668,7.27868852 Z M18.2205228,9.23750871 C18.7140557,9.23750871 19.1196689,9.38110643 19.436024,9.6684772 C19.7499608,9.95519048 19.9081815,10.3251869 19.9081815,10.7773269 L19.9081815,13.8412709 C19.9081815,14.3482901 19.7535881,14.745507 19.4455673,15.0346749 C19.1339192,15.3231854 18.7093488,15.4680981 18.1658538,15.4680981 C17.6449432,15.4680981 17.226332,15.3183637 16.9123088,15.0214811 C16.6007039,14.7232397 16.4425695,14.3218586 16.4425695,13.817864 L16.4424832,10.7441013 C16.4424832,10.2835453 16.6030357,9.91775688 16.92535,9.64612225 C17.2464982,9.37387394 17.6793597,9.23750871 18.2205228,9.23750871 Z M18.1633924,14.4406029 C18.3251972,14.4406029 18.4524129,14.3947972 18.548753,14.3048075 C18.6439705,14.2130207 18.6915576,14.0881398 18.6915576,13.9299456 L18.6915576,10.6987777 C18.6915576,10.5690751 18.6427182,10.4646205 18.5452121,10.384318 C18.447706,10.304673 18.3204471,10.2653984 18.1633924,10.2653984 C18.0171332,10.2653984 17.8994177,10.304673 17.8078276,10.384318 C17.7174466,10.4646205 17.6710686,10.5689874 17.6710686,10.6987777 L17.6710686,13.9299894 C17.6710254,14.0923478 17.7150284,14.2172725 17.7994502,14.3072183 C17.8839152,14.3965505 18.005258,14.4406029 18.1633924,14.4406029 Z M23.0884003,15.3183637 L23.0884003,14.6634511 C22.8707173,14.904271 22.6412454,15.0896418 22.4021007,15.2151364 C22.1642515,15.3412885 21.9334842,15.4041454 21.709842,15.4041454 C21.4316171,15.4041454 21.2258093,15.315383 21.0855525,15.1391295 C20.9463753,14.9622624 20.8762037,14.6979041 20.8762037,14.3441259 L20.8762037,9.38715542 L22.0678681,9.38715542 L22.0678681,13.9341974 C22.0678681,14.0748583 22.095289,14.1762446 22.145208,14.2390138 C22.193961,14.3018707 22.2760078,14.3337813 22.3878505,14.3337813 C22.4746473,14.3337813 22.58649,14.2915699 22.7208308,14.2088565 C22.8540056,14.1255734 22.9777235,14.0192339 23.0883139,13.8889176 L23.0883139,9.38715542 L24.2824829,9.38715542 L24.2824829,15.3183637 L23.0884003,15.3183637 Z" id="Path" fill="#FFFFFF"></path>
                            <path d="M36.7230172,18.1967213 C36.7230172,28.2464935 28.564295,36.3934426 18.5,36.3934426 C14.7673914,36.3934426 11.2968929,35.272836 8.40757482,33.350208 L29.2880446,3.52980669 C33.7970484,6.84236167 36.7230172,12.1783361 36.7230172,18.1967213 Z" id="reflec" fill-opacity="0.08" fill="#000000"></path>
                        </g>
                    </g>
                </g>
            </g>
        </g>
    </g>
</svg>